<?xml version="1.0" encoding="UTF-8" standalone="no"?>
<svg width="430px" height="422px" viewBox="0 0 430 422" version="1.1" xmlns="http://www.w3.org/2000/svg" xmlns:xlink="http://www.w3.org/1999/xlink" xmlns:sketch="http://www.bohemiancoding.com/sketch/ns">
    <!-- Generator: Sketch 3.3.3 (12081) - http://www.bohemiancoding.com/sketch -->
    <title>Slice 1</title>
    <desc>Created with Sketch.</desc>
    <defs></defs>
    <g id="Page-1" stroke="none" stroke-width="1" fill="none" fill-rule="evenodd" sketch:type="MSPage">
        <g id="github" sketch:type="MSLayerGroup" transform="translate(5.000000, 1.000000)" fill="#FFFFFF">
            <path d="M210.5,0 C94.2439746,0 0,94.2439746 0,210.5 C0,326.756025 94.2439746,421 210.5,421 C326.756025,421 421,326.756025 421,210.5 C421,94.2439746 326.756025,0 210.5,0 L210.5,0 Z M335.506576,335.506576 C319.258607,351.753723 300.349787,364.505418 279.301432,373.408088 C273.955061,375.669318 268.525641,377.654268 263.01975,379.366225 L263.01975,347.818359 C263.01975,331.235729 257.332961,319.039062 245.957738,311.227539 C253.085137,310.542592 259.627904,309.583008 265.58933,308.349609 C271.550756,307.116211 277.855889,305.334361 284.501439,303.004883 C291.148635,300.675404 297.110061,297.900258 302.385717,294.679443 C307.663018,291.458629 312.733107,287.279053 317.597631,282.139893 C322.463799,277.000732 326.53977,271.176625 329.828832,264.666748 C333.117895,258.156871 335.722832,250.345348 337.640355,241.232178 C339.559523,232.119008 340.518285,222.079967 340.518285,211.116699 C340.518285,189.875111 333.598098,171.785268 319.756078,156.847168 C326.061211,140.401855 325.375441,122.517578 317.700414,103.194336 L312.561254,102.577637 C308.999199,102.166504 302.591283,103.673717 293.340795,107.100098 C284.090307,110.526479 273.709203,116.14502 262.197484,123.956543 C245.890313,119.434082 228.964797,117.172852 211.423404,117.172852 C193.744693,117.172852 176.888248,119.434082 160.854068,123.956543 C153.590996,119.022949 146.704521,114.946156 140.194645,111.725342 C133.684768,108.504527 128.477359,106.312367 124.571598,105.147217 C120.665836,103.982066 117.033889,103.262584 113.676578,102.98877 C110.319268,102.714955 108.16082,102.645885 107.201236,102.783203 C106.241652,102.920521 105.556705,103.057018 105.145572,103.194336 C97.4713672,122.654896 96.7855977,140.539174 103.089908,156.847168 C89.2487109,171.785268 82.3277012,189.875111 82.3277012,211.116699 C82.3277012,222.079967 83.2872852,232.119008 85.2056309,241.232178 C87.1239766,250.345348 89.7280918,258.156871 93.0171543,264.666748 C96.3062168,271.176625 100.38301,277.000732 105.248355,282.139893 C110.113701,287.279053 115.183791,291.458629 120.46027,294.679443 C125.736748,297.900258 131.698174,300.675404 138.344547,303.004883 C144.99092,305.334361 151.29523,307.116211 157.256656,308.349609 C163.218082,309.583008 169.761672,310.542592 176.888248,311.227539 C165.650344,318.901744 160.031803,331.099232 160.031803,347.818359 L160.031803,379.981279 C153.82452,378.133648 147.706041,375.950533 141.695279,373.408088 C120.647746,364.505418 101.738104,351.753723 85.490957,335.506576 C69.2446328,319.260252 56.4921152,300.349787 47.5902676,279.301432 C38.3825371,257.529482 33.7128906,234.381061 33.7128906,210.5 C33.7128906,186.618939 38.3825371,163.470518 47.5919121,141.696924 C56.494582,120.649391 69.2462773,101.739748 85.4926016,85.4926016 C101.738926,69.2454551 120.649391,56.4937598 141.696924,47.5919121 C163.470518,38.3825371 186.618939,33.7128906 210.5,33.7128906 C234.381061,33.7128906 257.529482,38.3825371 279.303898,47.5919121 C300.352254,56.494582 319.261074,69.2462773 335.509043,85.4926016 C351.755367,101.738926 364.507063,120.649391 373.40891,141.696924 C382.616641,163.470518 387.287109,186.618939 387.287109,210.5 C387.287109,234.381061 382.616641,257.529482 373.408088,279.303076 C364.50624,300.349787 351.7529,319.261074 335.506576,335.506576 L335.506576,335.506576 Z" id="Shape" sketch:type="MSShapeGroup"></path>
        </g>
    </g>
</svg>